<svg width="19" height="19" viewBox="0 0 19 19" fill="none" xmlns="http://www.w3.org/2000/svg">
<g clip-path="url(#clip0_453_2867)">
<path d="M1.2168 4.5669C1.51506 4.56917 1.80021 4.68978 2.00956 4.90223L7.72477 10.6948C7.89771 10.8701 8.1035 11.0096 8.33038 11.1054C8.55726 11.2012 8.80078 11.2514 9.04705 11.253C9.29331 11.2547 9.53749 11.2078 9.76564 11.1151C9.99378 11.0223 10.2014 10.8856 10.3767 10.7126L16.1654 5.00486C16.379 4.80136 16.6639 4.68988 16.9589 4.69442C17.2538 4.69897 17.5352 4.81918 17.7424 5.02916C17.9495 5.23914 18.066 5.52209 18.0665 5.81707C18.0671 6.11206 17.9518 6.39546 17.7455 6.60626L11.9612 12.314C11.1819 13.0815 10.1298 13.5084 9.03607 13.501C7.94229 13.4937 6.8961 13.0527 6.12711 12.2748L0.41191 6.48228C0.255756 6.32412 0.14995 6.12325 0.107844 5.90501C0.06574 5.68678 0.0892211 5.46096 0.175326 5.25606C0.261429 5.05115 0.406301 4.87635 0.591654 4.7537C0.777009 4.63104 0.994539 4.56604 1.2168 4.5669Z" fill="#011432"/>
</g>
<defs>
<clipPath id="clip0_453_2867">
<rect width="18" height="18" fill="white" transform="translate(18.1211 0.121094) rotate(90.385)"/>
</clipPath>
</defs>
</svg>
