<svg width="6" height="10" viewBox="0 0 6 10" fill="none" xmlns="http://www.w3.org/2000/svg">
<path d="M0 9.37609C0.00017739 9.2102 0.0803668 9.05115 0.222938 8.93392L4.11017 5.73362C4.22783 5.63678 4.32116 5.5218 4.38484 5.39526C4.44852 5.26872 4.48129 5.13309 4.48129 4.99612C4.48129 4.85914 4.44852 4.72351 4.38484 4.59697C4.32116 4.47043 4.22783 4.35545 4.11017 4.25861L0.228005 1.0604C0.0895617 0.942388 0.0129564 0.784332 0.014688 0.620273C0.0164196 0.456214 0.0963499 0.299278 0.237263 0.183266C0.378176 0.0672546 0.568798 0.00144928 0.768072 2.36535e-05C0.967346 -0.00140198 1.15933 0.0616661 1.30267 0.175644L5.18483 3.37136C5.70683 3.80195 6 4.38546 6 4.99382C6 5.60218 5.70683 6.18569 5.18483 6.61629L1.2976 9.81659C1.19146 9.90403 1.05624 9.96362 0.909004 9.98786C0.761765 10.0121 0.609107 9.99988 0.470292 9.95275C0.331478 9.90563 0.212729 9.82571 0.12903 9.72308C0.0453304 9.62045 0.00043184 9.49971 0 9.37609Z" fill="#011432"/>
</svg>
