<svg width="19" height="19" viewBox="0 0 19 19" fill="none" xmlns="http://www.w3.org/2000/svg">
<g clip-path="url(#clip0_453_2864)">
<path d="M1.20394 14.0068C1.51459 14.0086 1.81325 13.887 2.03426 13.6686L8.06745 7.71598C8.25001 7.53581 8.46629 7.39336 8.70391 7.29678C8.94153 7.2002 9.19586 7.15138 9.45235 7.1531C9.70885 7.15483 9.96249 7.20706 10.1988 7.30683C10.4351 7.40659 10.6494 7.55193 10.8296 7.73454L16.7784 13.7599C16.9979 13.9748 17.2931 14.0949 17.6003 14.0943C17.9076 14.0937 18.2023 13.9724 18.421 13.7567C18.6397 13.5409 18.7649 13.2478 18.7696 12.9406C18.7744 12.6334 18.6583 12.3367 18.4463 12.1142L12.5022 6.08891C11.7013 5.27873 10.6116 4.81941 9.47238 4.81176C8.33316 4.8041 7.23744 5.24873 6.42569 6.04807L0.392494 12.0007C0.227654 12.1633 0.114651 12.371 0.0677467 12.5977C0.0208408 12.8244 0.0421336 13.0599 0.128941 13.2745C0.215746 13.4891 0.364175 13.6732 0.555495 13.8035C0.746816 13.9338 0.972454 14.0046 1.20394 14.0068Z" fill="#578CD5"/>
</g>
<defs>
<clipPath id="clip0_453_2864">
<rect width="18.7478" height="18.7478" fill="white" transform="matrix(0.00671958 -0.999977 -0.999977 -0.00671958 18.748 18.8734)"/>
</clipPath>
</defs>
</svg>
