<svg width="32" height="32" viewBox="0 0 32 32" fill="none" xmlns="http://www.w3.org/2000/svg">
<path d="M6.37519 26.6668C6.16914 26.6668 5.9677 26.6058 5.79636 26.4913C5.62502 26.3768 5.49148 26.2141 5.41262 26.0238C5.33376 25.8334 5.31313 25.6239 5.35334 25.4218C5.39355 25.2197 5.49279 25.0341 5.63851 24.8884L24.8888 5.63815C25.0842 5.44277 25.3492 5.33301 25.6255 5.33301C25.9018 5.33301 26.1668 5.44277 26.3622 5.63815C26.5575 5.83353 26.6673 6.09852 26.6673 6.37483C26.6673 6.65114 26.5575 6.91613 26.3622 7.11151L7.11187 26.3618C7.01521 26.4586 6.90038 26.5354 6.77396 26.5878C6.64754 26.6401 6.51202 26.667 6.37519 26.6668Z" fill="white"/>
<path d="M25.6256 26.6668C25.4888 26.667 25.3533 26.6401 25.2268 26.5878C25.1004 26.5354 24.9856 26.4586 24.8889 26.3618L5.63864 7.11151C5.44326 6.91613 5.3335 6.65114 5.3335 6.37483C5.3335 6.09852 5.44326 5.83353 5.63864 5.63815C5.83402 5.44277 6.09901 5.33301 6.37532 5.33301C6.65162 5.33301 6.91661 5.44277 7.11199 5.63815L26.3623 24.8884C26.508 25.0341 26.6072 25.2197 26.6475 25.4218C26.6877 25.6239 26.667 25.8334 26.5882 26.0238C26.5093 26.2141 26.3758 26.3768 26.2044 26.4913C26.0331 26.6058 25.8317 26.6668 25.6256 26.6668Z" fill="white"/>
</svg>
