<svg width="24" height="24" viewBox="0 0 24 24" fill="none" xmlns="http://www.w3.org/2000/svg">
<path d="M20.0093 3.99044C19.7589 3.74019 19.4195 3.59961 19.0655 3.59961C18.7116 3.59961 18.3721 3.74019 18.1218 3.99044L12.0001 10.1121L5.87842 3.99044C5.6281 3.74019 5.28863 3.59961 4.93467 3.59961C4.58072 3.59961 4.24125 3.74019 3.99093 3.99044C3.74068 4.24076 3.6001 4.58023 3.6001 4.93419C3.6001 5.28814 3.74068 5.62761 3.99093 5.87793L10.1126 11.9996L3.99093 18.1213C3.74068 18.3716 3.6001 18.7111 3.6001 19.065C3.6001 19.419 3.74068 19.7585 3.99093 20.0088C4.24125 20.259 4.58072 20.3996 4.93467 20.3996C5.28863 20.3996 5.6281 20.259 5.87842 20.0088L12.0001 13.8871L18.1218 20.0088C18.3721 20.259 18.7116 20.3996 19.0655 20.3996C19.4195 20.3996 19.7589 20.259 20.0093 20.0088C20.2595 19.7585 20.4001 19.419 20.4001 19.065C20.4001 18.7111 20.2595 18.3716 20.0093 18.1213L13.8876 11.9996L20.0093 5.87793C20.2595 5.62761 20.4001 5.28814 20.4001 4.93419C20.4001 4.58023 20.2595 4.24076 20.0093 3.99044Z" fill="#6D6D6D"/>
</svg>
