<svg width="30" height="30" viewBox="0 0 30 30" fill="none" xmlns="http://www.w3.org/2000/svg">
<g clip-path="url(#clip0_453_407)">
<path d="M15.0009 24.4389C15.2959 24.4389 15.5787 24.3217 15.7873 24.1131C15.9959 23.9045 16.1131 23.6216 16.1131 23.3267L16.1131 16.1122L23.3276 16.1122C23.6225 16.1122 23.9054 15.995 24.114 15.7864C24.3226 15.5778 24.4397 15.295 24.4398 15C24.4397 14.705 24.3226 14.4222 24.114 14.2136C23.9054 14.005 23.6225 13.8878 23.3276 13.8878L16.1131 13.8878L16.1131 6.67332C16.1131 6.37835 15.9959 6.09548 15.7873 5.88691C15.5787 5.67834 15.2959 5.56114 15.0009 5.5611C14.7059 5.56114 14.4231 5.67834 14.2145 5.88691C14.0059 6.09548 13.8887 6.37835 13.8887 6.67332L13.8887 13.8878L6.67421 13.8878C6.37925 13.8878 6.09638 14.005 5.88781 14.2136C5.67924 14.4222 5.56204 14.705 5.562 15C5.56204 15.295 5.67923 15.5778 5.88781 15.7864C6.09638 15.995 6.37925 16.1122 6.67421 16.1122L13.8887 16.1122L13.8887 23.3267C13.8887 23.6216 14.0059 23.9045 14.2145 24.1131C14.4231 24.3217 14.7059 24.4389 15.0009 24.4389Z" fill="#578CD5"/>
</g>
<defs>
<clipPath id="clip0_453_407">
<rect width="20" height="20" fill="white" transform="translate(15 0.85791) rotate(45)"/>
</clipPath>
</defs>
</svg>
