<svg width="30" height="29" viewBox="0 0 30 29" fill="none" xmlns="http://www.w3.org/2000/svg">
<g clip-path="url(#clip0_148_390)">
<path d="M15.0019 23.9389C15.2968 23.9389 15.5797 23.8217 15.7883 23.6131C15.9968 23.4045 16.114 23.1216 16.1141 22.8267L16.1141 15.6122L23.3286 15.6122C23.6235 15.6122 23.9064 15.495 24.115 15.2864C24.3235 15.0778 24.4407 14.795 24.4408 14.5C24.4407 14.205 24.3235 13.9222 24.115 13.7136C23.9064 13.505 23.6235 13.3878 23.3286 13.3878L16.1141 13.3878L16.1141 6.17332C16.114 5.87835 15.9969 5.59548 15.7883 5.38691C15.5797 5.17834 15.2968 5.06114 15.0019 5.0611C14.7069 5.06114 14.424 5.17834 14.2155 5.38691C14.0069 5.59548 13.8897 5.87835 13.8897 6.17332L13.8897 13.3878L6.67519 13.3878C6.38022 13.3878 6.09735 13.505 5.88878 13.7136C5.68021 13.9222 5.56302 14.205 5.56297 14.5C5.56302 14.795 5.68021 15.0778 5.88878 15.2864C6.09735 15.495 6.38022 15.6122 6.67519 15.6122L13.8897 15.6122L13.8897 22.8267C13.8897 23.1216 14.0069 23.4045 14.2155 23.6131C14.424 23.8217 14.7069 23.9389 15.0019 23.9389Z" fill="#034556"/>
</g>
<defs>
<clipPath id="clip0_148_390">
<rect width="20" height="20" fill="white" transform="translate(15.001 0.35791) rotate(45)"/>
</clipPath>
</defs>
</svg>
