<svg width="30" height="30" viewBox="0 0 30 30" fill="none" xmlns="http://www.w3.org/2000/svg">
<g clip-path="url(#clip0_453_48)">
<path d="M28.7506 13.75C28.4191 13.75 28.1012 13.8817 27.8667 14.1161C27.6323 14.3505 27.5006 14.6685 27.5006 15C27.5108 17.9066 26.5111 20.7265 24.6725 22.9777C22.8339 25.2289 20.2705 26.7717 17.4205 27.3423C14.5704 27.9129 11.6107 27.4759 9.04711 26.1061C6.48354 24.7362 4.47531 22.5186 3.36567 19.8321C2.25604 17.1456 2.11389 14.1572 2.96353 11.3775C3.81316 8.59785 5.60184 6.19957 8.02382 4.59259C10.4458 2.98561 13.3507 2.26969 16.2421 2.56721C19.1334 2.86473 21.8317 4.15722 23.8756 6.22375C23.8345 6.23496 23.7928 6.24373 23.7506 6.25H20.0006C19.6691 6.25 19.3512 6.3817 19.1167 6.61612C18.8823 6.85054 18.7506 7.16848 18.7506 7.5C18.7506 7.83152 18.8823 8.14946 19.1167 8.38388C19.3512 8.6183 19.6691 8.75 20.0006 8.75H23.7506C24.7452 8.75 25.699 8.35491 26.4023 7.65165C27.1055 6.94839 27.5006 5.99456 27.5006 5V1.25C27.5006 0.918479 27.3689 0.600537 27.1345 0.366117C26.9001 0.131696 26.5822 0 26.2506 0C25.9191 0 25.6012 0.131696 25.3667 0.366117C25.1323 0.600537 25.0006 0.918479 25.0006 1.25V3.83125C22.4413 1.54316 19.1743 0.202708 15.7454 0.0338783C12.3166 -0.134952 8.93369 0.878071 6.16198 2.90367C3.39027 4.92927 1.39767 7.84473 0.517162 11.1629C-0.36335 14.481 -0.0784396 18.0009 1.32428 21.1342C2.72701 24.2675 5.16257 26.8246 8.22398 28.378C11.2854 29.9314 14.7872 30.3872 18.1442 29.6691C21.5013 28.951 24.5102 27.1025 26.6682 24.4326C28.8262 21.7626 30.0025 18.433 30.0006 15C30.0006 14.6685 29.8689 14.3505 29.6345 14.1161C29.4001 13.8817 29.0822 13.75 28.7506 13.75Z" fill="#578CD5"/>
<path d="M15 7.5C14.6685 7.5 14.3505 7.6317 14.1161 7.86612C13.8817 8.10054 13.75 8.41848 13.75 8.75V15C13.7501 15.3315 13.8818 15.6494 14.1163 15.8837L17.8663 19.6337C18.102 19.8614 18.4178 19.9874 18.7455 19.9846C19.0732 19.9817 19.3868 19.8503 19.6185 19.6185C19.8503 19.3868 19.9817 19.0732 19.9846 18.7455C19.9874 18.4178 19.8614 18.102 19.6337 17.8663L16.25 14.4825V8.75C16.25 8.41848 16.1183 8.10054 15.8839 7.86612C15.6495 7.6317 15.3315 7.5 15 7.5Z" fill="#578CD5"/>
</g>
<defs>
<clipPath id="clip0_453_48">
<rect width="30" height="30" fill="white"/>
</clipPath>
</defs>
</svg>
