<svg width="19" height="11" viewBox="0 0 19 11" fill="none" xmlns="http://www.w3.org/2000/svg">
<path d="M16.7148 4.5891C16.9765 4.25085 17.1842 3.97945 17.3376 3.77469C18.4424 2.30577 18.9213 1.36741 18.7746 0.958301L18.717 0.862488C18.6787 0.804938 18.5795 0.752089 18.42 0.704252C18.2603 0.656449 18.0559 0.64881 17.807 0.680368L15.048 0.699828C14.9841 0.693472 14.9198 0.694958 14.8563 0.704252C14.7924 0.713964 14.751 0.723711 14.7317 0.733009C14.7124 0.742757 14.6966 0.750568 14.6839 0.756928L14.6456 0.785686C14.6137 0.804731 14.5786 0.838362 14.5403 0.886407C14.502 0.934417 14.4698 0.990066 14.4445 1.05415C14.1443 1.82687 13.8027 2.54547 13.4194 3.2097C13.1831 3.6057 12.9658 3.94924 12.7681 4.23945C12.5701 4.53031 12.404 4.74419 12.2699 4.88124C12.1358 5.01853 12.0143 5.12893 11.9059 5.21168C11.7971 5.29501 11.7142 5.32992 11.6569 5.31724C11.6024 5.30536 11.5481 5.29252 11.494 5.27873C11.4045 5.22143 11.3326 5.14334 11.2784 5.04414C11.2241 4.94539 11.1875 4.82075 11.1682 4.67057C11.1492 4.52059 11.1378 4.39115 11.1348 4.28241C11.1314 4.17391 11.1331 4.02076 11.1397 3.82253C11.146 3.62451 11.1492 3.49064 11.1492 3.4202C11.1492 3.17776 11.154 2.91421 11.1636 2.62991C11.1731 2.34583 11.1812 2.12053 11.1875 1.95445C11.1939 1.78861 11.197 1.61282 11.197 1.42752C11.197 1.24263 11.1858 1.09708 11.1633 0.991552C11.1407 0.88612 11.1071 0.783374 11.0629 0.685034C11.018 0.586248 10.9526 0.509446 10.8663 0.455318C10.7801 0.400948 10.6732 0.358018 10.5455 0.325839C10.2068 0.249036 9.77568 0.208008 9.25213 0.201268C8.06415 0.188998 7.30093 0.265558 6.96247 0.431399C6.82836 0.501842 6.70694 0.597447 6.59844 0.718873C6.48337 0.85955 6.46751 0.936318 6.55064 0.948588C6.93392 1.00614 7.20515 1.14364 7.36484 1.36067L7.42239 1.47553C7.46701 1.55886 7.51167 1.70569 7.5565 1.91636C7.60116 2.12707 7.62992 2.36017 7.64281 2.61571C7.67475 3.08191 7.67475 3.48089 7.64281 3.81323C7.61087 4.14553 7.58063 4.40404 7.55187 4.58893C7.52308 4.77423 7.47994 4.9242 7.4226 5.03906C7.36505 5.15434 7.32678 5.22457 7.30753 5.25015C7.28828 5.27552 7.27241 5.29159 7.25973 5.29799C7.17718 5.32969 7.08948 5.3459 7.00105 5.34579C6.91156 5.34579 6.80303 5.30092 6.67528 5.21144C6.54749 5.1224 6.41487 4.99928 6.27778 4.84274C6.14029 4.68643 5.98564 4.4675 5.81303 4.18635C5.64062 3.90566 5.46165 3.57332 5.27655 3.19024L5.1234 2.91227C5.02758 2.73374 4.89662 2.47334 4.73057 2.1317C4.56452 1.79006 4.41748 1.45966 4.28994 1.14004C4.23875 1.00614 4.16216 0.903966 4.06002 0.833523L4.01222 0.804766C3.98028 0.779361 3.92909 0.752089 3.85885 0.723504C3.78792 0.694595 3.71399 0.673669 3.63843 0.661115L1.0135 0.68016C0.745276 0.68016 0.563363 0.741098 0.46755 0.862488L0.429252 0.919831C0.409896 0.951976 0.400391 1.00317 0.400391 1.07319C0.400391 1.14364 0.419643 1.22974 0.457941 1.3317C0.841227 2.23242 1.25797 3.10099 1.70811 3.93739C2.15848 4.77423 2.54962 5.44817 2.88171 5.95903C3.21381 6.47031 3.55226 6.95218 3.89729 7.4057C4.24231 7.85922 4.47054 8.14963 4.58222 8.27721C4.6939 8.4052 4.78169 8.50105 4.8456 8.56468L5.08506 8.79481C5.23822 8.948 5.46351 9.13158 5.76053 9.34567C6.0575 9.55973 6.38625 9.77043 6.74734 9.97775C7.10803 10.1855 7.52812 10.3545 8.00702 10.4856C8.48594 10.6168 8.95215 10.6694 9.40567 10.6436H10.5074C10.731 10.6246 10.9001 10.5546 11.0151 10.4329L11.0533 10.3851C11.0787 10.347 11.1028 10.2878 11.1252 10.2081C11.1474 10.1283 11.1589 10.0403 11.1589 9.94471C11.1523 9.67016 11.1733 9.42223 11.2211 9.20223C11.2689 8.98181 11.3232 8.81597 11.384 8.70387C11.4447 8.59237 11.5132 8.49804 11.59 8.42124C11.6666 8.34444 11.7207 8.29854 11.7529 8.28246C11.7848 8.26681 11.8105 8.25561 11.8295 8.24883C11.9826 8.19781 12.1631 8.24735 12.3708 8.39732C12.5783 8.54775 12.7732 8.7326 12.9553 8.95302C13.1372 9.17343 13.3559 9.42071 13.6115 9.6955C13.8668 9.97004 14.0903 10.1744 14.282 10.3085L14.4737 10.4238C14.6014 10.5002 14.7673 10.5704 14.9718 10.6345C15.1762 10.6982 15.3551 10.7143 15.5083 10.6823L17.9608 10.6438C18.2034 10.6438 18.3919 10.6041 18.5261 10.5241C18.6601 10.4448 18.7399 10.3563 18.7655 10.2607C18.7909 10.1649 18.7926 10.0568 18.7704 9.93517C18.748 9.81395 18.7256 9.72934 18.7034 9.68153C18.681 9.63373 18.6602 9.59353 18.6409 9.5618C18.3215 8.98706 17.7116 8.28115 16.8111 7.44455L16.7919 7.4255L16.7824 7.41579L16.7729 7.40646H16.7633C16.3544 7.01681 16.0958 6.75492 15.9873 6.6206C15.7894 6.36551 15.7445 6.1068 15.8532 5.84493C15.9294 5.64636 16.2167 5.22796 16.7148 4.5891Z" fill="white"/>
</svg>
