<svg width="18" height="19" viewBox="0 0 18 19" fill="none" xmlns="http://www.w3.org/2000/svg">
<path d="M9.25993 0C4.42866 0 0.515961 3.96229 0.515961 8.85479C0.515961 10.826 1.15309 12.6469 2.22801 14.1194L0 19L0.58241 18.7269L5.06971 16.629C6.3127 17.3177 7.73941 17.7096 9.25602 17.7096C14.0834 17.7096 18 13.7473 18 8.85479C18.0039 3.96229 14.0873 0 9.25993 0ZM13.9231 12.635C13.8723 12.8804 13.7668 13.114 13.6143 13.3198C13.4267 13.5731 13.1844 13.7631 12.9068 13.8819C12.6293 14.0006 12.3244 14.0481 12.0195 14.0085C11.2026 13.9096 10.413 13.6444 9.70554 13.2169C8.8886 12.726 7.79023 11.9621 6.96156 10.8696C6.07818 9.82063 5.59739 8.59354 5.29251 7.67917C5.03062 6.89146 4.93681 6.05229 5.01107 5.225C5.03844 4.91229 5.14788 4.61938 5.31987 4.37C5.49186 4.12063 5.73029 3.91875 6.01173 3.78812C6.24234 3.67729 6.49251 3.62583 6.73876 3.62583C7.09055 3.62583 7.52052 3.62188 7.81759 3.83562C8.27883 4.16417 8.47427 4.81333 8.47427 5.38333C8.47427 5.43479 8.47036 5.49021 8.46645 5.54167C8.43909 5.85437 8.41173 6.1275 8.23583 6.37687C8.06384 6.62625 7.74723 6.84396 7.4658 6.97854C7.68078 8.15021 8.05212 9.02104 8.56417 9.58313C8.78306 9.89188 9.08013 10.1848 9.45928 10.4579C9.83844 10.731 10.2958 10.9804 10.8391 11.21C11.0267 10.9606 11.3042 10.6915 11.5818 10.5727C11.8554 10.454 12.129 10.4817 12.4339 10.5212C12.4847 10.5292 12.5394 10.5371 12.5902 10.549C13.1375 10.6677 13.7238 10.9963 13.9466 11.5227C14.0873 11.8631 13.9974 12.2867 13.9231 12.635Z" fill="white"/>
</svg>
