<svg width="646" height="234" viewBox="0 0 646 234" fill="none" xmlns="http://www.w3.org/2000/svg">
<path d="M160.699 153.035V179.135H135.199V219.035H107.299V179.135H0.199219V153.035L75.4992 9.03516H105.499L30.1992 153.035H107.299V93.6352H135.199V153.035H160.699Z" fill="#578CD5"/>
<path d="M645.699 148.035V174.135H620.199V214.035H592.299V174.135H485.199V148.035L560.499 4.03516H590.499L515.199 148.035H592.299V88.6352H620.199V148.035H645.699Z" fill="#578CD5"/>
<g opacity="0.999">
<path fill-rule="evenodd" clip-rule="evenodd" d="M310.964 0C311.932 0 312.899 0 313.867 0C313.89 0.0943738 313.914 0.0943738 313.938 0C313.961 0 313.985 0 314.008 0C321.914 0.256082 329.773 0.492017 337.585 0.707804C337.703 1.69572 337.738 2.68665 337.692 3.68058C337.687 4.43365 337.391 5.03528 336.807 5.48548C336.665 5.53267 336.523 5.57985 336.382 5.62704C335.638 5.67601 334.894 5.66422 334.152 5.59165C332.643 5.5897 331.581 6.27391 330.965 7.64428C330.562 8.59883 330.29 9.58975 330.151 10.6171C332.481 11.3406 334.793 12.1074 337.09 12.9174C334.067 14.9945 330.762 16.4572 327.178 17.3058C321.894 18.3493 317.681 16.7095 314.539 12.3866C313.782 11.2489 313.097 10.0693 312.486 8.84755C311.722 8.6689 310.955 8.5037 310.185 8.35209C306.882 8.54326 303.577 8.73204 300.273 8.91833C300.145 8.91288 300.027 8.87749 299.919 8.81216C298.96 8.15574 298.04 7.44794 297.158 6.68875C296.723 6.25399 296.404 5.74673 296.202 5.16697C296.1 4.59926 296.218 4.08021 296.556 3.6098C297.323 2.70214 298.184 1.88817 299.14 1.16788C303.093 0.786866 307.034 0.397572 310.964 0Z" fill="#578CD5"/>
<path fill-rule="evenodd" clip-rule="evenodd" d="M344.312 1.62795C347.452 2.24168 350.591 2.86691 353.728 3.50363C363.171 7.75102 372.611 11.9978 382.049 16.2441C379.904 17.2876 377.638 17.8657 375.252 17.9782C374.531 18.0113 373.822 17.9287 373.128 17.7305C371.743 17.1682 370.351 16.6255 368.951 16.1025C367.41 15.7544 365.876 15.7779 364.348 16.1733C363.542 16.6712 362.716 17.1431 361.87 17.5889C359.638 18.3373 357.349 18.8328 355.003 19.0753C353.282 19.2804 351.56 19.4573 349.834 19.6062C349.834 19.0871 349.834 18.568 349.834 18.049C348.442 17.772 347.074 17.4062 345.728 16.9519C345.007 16.68 344.405 16.2435 343.922 15.6425C343.25 14.6751 342.577 13.7078 341.904 12.7405C342.725 9.03972 343.527 5.33555 344.312 1.62795Z" fill="#578CD5"/>
<path fill-rule="evenodd" clip-rule="evenodd" d="M271.811 16.5626C273.454 17.1781 274.858 18.1455 276.023 19.4646C277.956 22.0787 277.956 24.6976 276.023 27.3212C274.925 28.6576 273.591 29.6604 272.023 30.3294C272.525 28.846 272.986 27.3478 273.404 25.8348C273.857 24.1697 273.81 22.5182 273.262 20.8802C272.785 19.4367 272.301 17.9975 271.811 16.5626Z" fill="#578CD5"/>
<path fill-rule="evenodd" clip-rule="evenodd" d="M253.048 26.0472C256.774 26.1029 258.981 27.9668 259.668 31.6388C259.777 32.6508 259.8 33.6653 259.739 34.6824C259.714 35.0195 259.655 35.3498 259.562 35.6733C258.577 34.3421 257.574 33.0209 256.553 31.7096C255.597 30.5881 254.428 29.7741 253.048 29.2677C251.471 28.7344 249.89 28.2153 248.304 27.7105C249.771 26.8091 251.352 26.2547 253.048 26.0472Z" fill="#578CD5"/>
<path fill-rule="evenodd" clip-rule="evenodd" d="M393.165 26.755C394.943 26.7025 396.643 27.0446 398.263 27.7813C400.113 28.6469 401.836 29.7086 403.431 30.9664C406.677 33.6926 409.639 36.7008 412.317 39.9909C419.957 49.6908 426.235 60.2607 431.15 71.7005C432.507 74.875 433.64 78.1309 434.548 81.4682C434.932 82.8994 435.18 84.3384 435.292 85.7858C424.423 81.8009 413.236 79.4418 401.732 78.7078C386.609 77.9667 372.024 80.6918 357.976 86.8829C350.432 90.2846 343.281 94.3191 336.523 98.9864C334.233 100.603 331.967 102.255 329.726 103.941C324.773 107.973 319.841 112.031 314.929 116.115C312.72 117.827 310.442 119.443 308.096 120.964C307.993 120.711 307.958 120.463 307.99 120.221C308.29 115.906 308.868 111.624 309.725 107.374C313.296 89.5308 317.874 71.9539 323.46 54.6425C324.533 51.2712 325.878 48.0153 327.496 44.8748C328.862 42.3076 330.49 39.9247 332.381 37.726C337.117 32.5111 342.533 31.6971 348.631 35.284C349.967 36.1015 351.265 36.9745 352.525 37.9029C353.749 38.8671 354.952 39.858 356.135 40.8757C359.088 43.568 362.062 46.234 365.057 48.8739C366.764 50.2813 368.534 51.6025 370.367 52.8376C372.081 53.9538 373.922 54.8031 375.889 55.3857C377.424 55.8128 378.982 55.9308 380.562 55.7396C380.658 55.6849 380.716 55.6023 380.739 55.4918C381.032 54.486 381.291 53.4715 381.518 52.4483C382.197 49.1016 382.858 45.7514 383.5 42.3975C384.14 38.8944 385.132 35.4969 386.474 32.2051C387.131 30.6988 388.064 29.3894 389.271 28.2768C390.44 27.4274 391.737 26.9201 393.165 26.755Z" fill="#578CD5"/>
<path fill-rule="evenodd" clip-rule="evenodd" d="M298.29 26.9673C298.361 26.9652 298.408 27.0006 298.432 27.0735C299.205 29.0486 299.359 31.0659 298.892 33.1252C298.051 35.6653 296.292 37.0927 293.618 37.4074C291.857 37.5656 290.157 37.3178 288.52 36.6642C289.944 35.9638 291.36 35.2443 292.768 34.5054C294.168 33.7422 295.266 32.6688 296.06 31.2849C296.842 29.8642 297.585 28.425 298.29 26.9673Z" fill="#578CD5"/>
<path fill-rule="evenodd" clip-rule="evenodd" d="M271.811 34.7532C279.543 34.6221 285.147 37.9723 288.626 44.804C290.592 49.1966 290.899 53.703 289.546 58.323C287.777 63.348 284.367 66.71 279.316 68.4093C276.359 69.3084 273.338 69.6387 270.253 69.4002C269.37 69.3592 268.497 69.253 267.633 69.0817C270.335 67.5241 272.931 65.8136 275.421 63.9501C277.548 62.3196 279.354 60.3968 280.838 58.1815C282.866 54.7562 283.03 51.2408 281.333 47.6352C279.902 44.7647 277.742 42.6295 274.855 41.2296C272.059 40.0215 269.251 40.0923 266.43 41.4419C263.49 43.2221 261.803 45.8292 261.367 49.2632C261.217 50.3217 261.359 51.3362 261.792 52.3067C262.246 52.9187 262.825 53.0721 263.527 52.7668C264.059 52.4946 264.531 52.1407 264.943 51.7051C265.469 51.1118 265.953 50.4866 266.394 49.8294C266.996 48.7676 267.633 47.7296 268.306 46.7151C269.331 45.6509 270.547 45.3797 271.952 45.9011C275.635 46.8345 277.204 49.1821 276.66 52.9437C275.686 56.7724 273.432 59.5682 269.899 61.3312C266.995 62.5723 264.257 62.2892 261.686 60.4818C258.395 57.7481 256.649 54.2327 256.447 49.9356C256.675 45.8103 258.257 42.3066 261.19 39.4247C264.142 36.5375 267.683 34.9803 271.811 34.7532Z" fill="#578CD5"/>
<path fill-rule="evenodd" clip-rule="evenodd" d="M245.26 48.2015C247.336 48.2777 249.047 49.1034 250.393 50.6788C251.298 51.7924 251.995 53.0311 252.482 54.3947C252.411 54.4419 252.34 54.4419 252.269 54.3947C250.475 53.5037 248.622 52.7605 246.711 52.1652C245.622 51.9149 244.548 51.9031 243.49 52.1298C241.947 52.4075 240.413 52.726 238.888 53.0853C238.84 53.0617 238.793 53.0381 238.746 53.0145C239.515 51.5961 240.554 50.4046 241.861 49.4401C242.892 48.7235 244.025 48.3106 245.26 48.2015Z" fill="#578CD5"/>
<path fill-rule="evenodd" clip-rule="evenodd" d="M295.317 49.971C296.8 50.7006 298.311 51.3731 299.848 51.9882C301.319 52.5223 302.83 52.6639 304.379 52.4129C305.96 52.1179 307.517 51.823 309.052 51.5281C308.048 53.3466 306.632 54.7505 304.804 55.7396C301.945 56.8329 299.503 56.2313 297.476 53.9347C296.48 52.7697 295.761 51.4485 295.317 49.971Z" fill="#578CD5"/>
<path fill-rule="evenodd" clip-rule="evenodd" d="M205.965 115.16C205.965 114.971 205.965 114.782 205.965 114.593C206.513 110.147 207.044 105.688 207.558 101.216C207.219 96.3187 207.714 91.5056 209.045 86.7768C211.023 80.1114 213.407 73.5996 216.196 67.2414C217.329 65.1652 218.461 63.0889 219.594 61.0127C219.854 60.6937 220.126 60.3869 220.408 60.0926C221.524 60.8213 222.622 61.5763 223.701 62.3575C224.127 63.7335 224.576 65.102 225.046 66.4628C225.937 68.7823 226.787 71.118 227.595 73.4701C227.913 74.4695 227.983 75.4838 227.807 76.5136C227.669 76.9779 227.457 77.4026 227.17 77.7877C226.584 78.4445 225.935 79.0228 225.223 79.5218C224.207 80.1609 223.192 80.798 222.178 81.4329C223.086 83.0693 223.947 84.7326 224.763 86.4229C225.346 87.6629 225.441 88.937 225.046 90.245C224.409 91.6606 223.772 93.0762 223.134 94.4918C222.7 95.5571 222.323 96.6429 222.001 97.7477C221.695 99.5852 221.613 101.413 221.754 103.233C221.766 104.273 221.66 105.299 221.435 106.312C220.929 107.808 219.926 108.811 218.426 109.32C218.122 109.426 217.816 109.52 217.506 109.603C215.192 109.845 212.879 110.093 210.567 110.347C210.185 111.529 209.795 112.709 209.399 113.886C209.313 113.995 209.207 114.078 209.08 114.133C207.985 114.313 206.947 114.656 205.965 115.16Z" fill="#578CD5"/>
<path fill-rule="evenodd" clip-rule="evenodd" d="M254.535 65.8258C256.54 65.8491 258.404 66.3682 260.128 67.3829C258.716 67.8495 257.3 68.3096 255.88 68.7632C254.274 69.2848 252.941 70.1931 251.88 71.4882C250.889 72.8097 249.897 74.1304 248.906 75.4519C248.416 73.4651 248.511 71.5066 249.189 69.5771C250.222 67.2591 252.004 66.0086 254.535 65.8258Z" fill="#578CD5"/>
<path fill-rule="evenodd" clip-rule="evenodd" d="M288.237 68.0907C289.13 69.3548 289.991 70.6524 290.821 71.9837C291.813 73.424 293.123 74.4737 294.75 75.1334C296.166 75.6996 297.582 76.2659 298.998 76.8321C296.907 77.9986 294.689 78.3525 292.343 77.8938C290.114 77.1747 288.71 75.677 288.13 73.3993C287.783 71.6227 287.819 69.8534 288.237 68.0907Z" fill="#578CD5"/>
<path fill-rule="evenodd" clip-rule="evenodd" d="M273.651 73.0454C273.69 73.0496 273.713 73.073 273.722 73.1161C273.137 74.4581 272.559 75.803 271.988 77.1506C271.341 78.6774 271.152 80.2579 271.421 81.8929C271.753 83.5492 272.083 85.2005 272.412 86.8475C270.548 85.8333 269.108 84.3936 268.093 82.5299C267.097 80.0342 267.499 77.7926 269.297 75.8058C270.557 74.5813 272.008 73.6612 273.651 73.0454Z" fill="#578CD5"/>
<path fill-rule="evenodd" clip-rule="evenodd" d="M439.965 112.682C439.965 113.65 439.965 114.617 439.965 115.584C439.127 121.732 436.035 126.368 430.69 129.493C426.008 131.913 421.217 132.172 416.317 130.271C414.772 129.641 413.262 128.933 411.786 128.148C409.136 126.658 406.445 125.242 403.714 123.901C396.842 120.686 389.62 118.963 382.049 118.734C370.412 118.576 359.036 120.228 347.922 123.689C342.978 125.289 338.034 126.952 333.09 128.679C331.349 129.179 329.591 129.687 327.815 130.201C326.472 130.559 325.114 130.854 323.744 131.085C323.661 131.062 323.579 131.038 323.496 131.015C323.279 130.302 323.091 129.583 322.929 128.856C323.115 128.599 323.327 128.364 323.567 128.148C329.653 122.793 336.215 118.098 343.25 114.063C357.806 105.601 373.289 99.3955 389.696 95.4474C396.866 93.7635 404.028 92.9021 411.184 92.8639C415.221 92.9156 419.198 93.4464 423.114 94.4564C427.63 95.6215 431.513 97.8511 434.761 101.145C437.705 104.439 439.439 108.285 439.965 112.682Z" fill="#578CD5"/>
<path fill-rule="evenodd" clip-rule="evenodd" d="M266.5 98.1724C280.183 97.6316 290.154 103.388 296.414 115.443C299.593 121.219 301.34 127.401 301.653 133.987C301.765 145.5 297.623 155.161 289.228 162.972C281.129 170.118 271.642 173.74 260.765 173.837C252.745 173.731 245.193 171.809 238.109 168.068C232.121 164.903 226.799 160.857 222.143 155.929C218.561 152.208 215.351 148.197 212.514 143.897C210.747 141.188 209.378 138.286 208.408 135.191C208.034 133.894 207.845 132.572 207.841 131.227C208.661 133.81 209.888 136.169 211.523 138.305C213.643 141.133 216.062 143.693 218.78 145.985C225.372 151.604 232.9 155.497 241.366 157.663C254.569 160.658 266.582 158.133 277.404 150.09C282.281 145.849 285.196 140.505 286.148 134.058C287.032 127.92 285.734 122.304 282.254 117.212C279.613 113.585 276.155 111.072 271.881 109.674C267.934 108.506 264.135 108.86 260.482 110.736C257.061 112.817 254.996 115.848 254.287 119.831C253.74 123.469 254.046 127.055 255.208 130.59C255.541 130.233 255.848 129.855 256.128 129.457C257.19 127.782 258.252 126.107 259.314 124.432C262.537 119.832 266.679 118.806 271.74 121.353C274.095 122.815 275.499 124.926 275.952 127.688C276.443 133.485 274.496 138.287 270.111 142.092C266.944 144.437 263.381 145.498 259.42 145.277C252.414 144.706 246.644 141.769 242.109 136.465C239.074 132.388 237.457 127.799 237.259 122.698C237.433 117.549 239.215 113.055 242.605 109.214C246.623 104.862 251.473 101.783 257.155 99.9773C260.208 99.0055 263.324 98.4039 266.5 98.1724Z" fill="#578CD5"/>
<path fill-rule="evenodd" clip-rule="evenodd" d="M373.27 133.421C381.113 133.334 388.641 135.092 395.855 138.694C403.828 142.843 409.858 148.918 413.945 156.92C418.389 166.384 418.767 176.01 415.078 185.799C413.519 189.626 411.489 193.165 408.989 196.416C407.668 197.878 406.216 199.187 404.635 200.344C398.476 204.708 391.702 207.751 384.315 209.475C381.821 210.01 379.366 210.152 376.951 209.899C375.146 209.704 373.541 209.044 372.137 207.917C371.289 207.105 370.652 206.149 370.225 205.051C376.882 203.292 381.283 199.139 383.43 192.593C385.51 184.952 384.566 177.709 380.598 170.864C375.724 163.288 368.844 160.185 359.959 161.556C355.976 162.38 352.247 163.842 348.772 165.945C344.634 168.453 340.847 171.414 337.408 174.828C332.277 180.879 326.506 186.2 320.097 190.789C301.849 203.54 281.883 207.338 260.199 202.184C248.382 199.134 237.998 193.543 229.046 185.409C225.867 182.42 223.164 179.058 220.939 175.323C219.575 172.996 218.584 170.518 217.966 167.891C217.895 167.658 217.872 167.422 217.895 167.183C224.436 173.102 231.74 177.903 239.808 181.587C246.678 184.678 253.876 186.448 261.403 186.896C270.061 187.259 278.345 185.679 286.254 182.153C289.949 180.472 293.489 178.538 296.874 176.349C302.9 172.332 308.705 168.014 314.292 163.397C320.329 158.304 326.489 153.373 332.771 148.603C336.733 145.678 340.887 143.036 345.232 140.676C351.887 137.278 358.919 135.037 366.331 133.952C368.646 133.657 370.959 133.48 373.27 133.421Z" fill="#578CD5"/>
<path fill-rule="evenodd" clip-rule="evenodd" d="M329.797 234C326.989 234 324.181 234 321.372 234C321.348 233.906 321.324 233.906 321.301 234C321.278 234 321.254 234 321.23 234C317.851 233.996 314.499 233.631 311.176 232.903C299.192 230.395 287.391 227.21 275.775 223.348C273.07 222.438 270.427 221.376 267.846 220.162C267.362 219.885 266.89 219.591 266.43 219.278C274.108 220.182 281.802 220.217 289.511 219.384C296.385 218.585 303.182 217.357 309.902 215.703C312.767 215.005 315.622 214.274 318.469 213.509C324.629 211.787 330.788 210.064 336.948 208.342C342.332 206.832 347.784 205.628 353.303 204.732C355.066 204.48 356.836 204.303 358.614 204.201C359.414 207.649 359.732 211.141 359.569 214.677C359.034 222.229 355.317 227.526 348.418 230.567C345.188 231.906 341.836 232.802 338.364 233.257C335.509 233.634 332.653 233.882 329.797 234Z" fill="#578CD5"/>
</g>
</svg>
