<svg width="242" height="32" viewBox="0 0 242 32" fill="none" xmlns="http://www.w3.org/2000/svg">
<path fill-rule="evenodd" clip-rule="evenodd" d="M30.794 0C30.9264 0 31.0586 0 31.191 0C31.1942 0.0129058 31.1975 0.0129058 31.2007 0C31.2039 0 31.2072 0 31.2103 0C32.2915 0.0350198 33.3662 0.0672844 34.4346 0.0967937C34.4506 0.231894 34.4555 0.367405 34.4491 0.503327C34.4484 0.606311 34.408 0.688586 34.328 0.750151C34.3087 0.756604 34.2893 0.763057 34.27 0.76951C34.1682 0.776206 34.0665 0.774594 33.965 0.76467C33.7587 0.764403 33.6135 0.857971 33.5293 1.04537C33.4741 1.17591 33.4369 1.31142 33.4179 1.45191C33.7365 1.55085 34.0527 1.65571 34.3668 1.76649C33.9533 2.05053 33.5015 2.25056 33.0113 2.36661C32.2887 2.5093 31.7126 2.28506 31.283 1.69389C31.1794 1.53831 31.0857 1.377 31.0022 1.20992C30.8977 1.18549 30.7928 1.1629 30.6875 1.14217C30.2357 1.16831 29.7839 1.19412 29.332 1.2196C29.3146 1.21886 29.2984 1.21402 29.2836 1.20508C29.1525 1.11532 29.0266 1.01852 28.906 0.914701C28.8465 0.855247 28.8029 0.785878 28.7752 0.706594C28.7613 0.628959 28.7775 0.557977 28.8237 0.493648C28.9285 0.369524 29.0463 0.258211 29.1771 0.15971C29.7176 0.107606 30.2566 0.0543688 30.794 0Z" fill="white"/>
<path fill-rule="evenodd" clip-rule="evenodd" d="M35.3544 0.222626C35.7838 0.306554 36.2131 0.392056 36.6421 0.479129C37.9334 1.05997 39.2244 1.64073 40.515 2.22142C40.2217 2.36412 39.9118 2.44317 39.5855 2.45856C39.4869 2.46309 39.39 2.45179 39.2951 2.42468C39.1057 2.34779 38.9153 2.27358 38.7238 2.20206C38.5131 2.15444 38.3033 2.15767 38.0945 2.21174C37.9842 2.27982 37.8712 2.34435 37.7556 2.40532C37.4503 2.50766 37.1373 2.57542 36.8164 2.60859C36.5811 2.63663 36.3455 2.66083 36.1096 2.68119C36.1096 2.61021 36.1096 2.53922 36.1096 2.46824C35.9192 2.43035 35.7321 2.38034 35.548 2.31821C35.4495 2.28103 35.3671 2.22134 35.3011 2.13914C35.2091 2.00685 35.1172 1.87457 35.0252 1.74229C35.1374 1.2362 35.2471 0.729648 35.3544 0.222626Z" fill="white"/>
<path fill-rule="evenodd" clip-rule="evenodd" d="M25.4397 2.26497C25.6644 2.34914 25.8564 2.48143 26.0158 2.66183C26.2801 3.01932 26.2801 3.37745 26.0158 3.73624C25.8656 3.91899 25.6832 4.05612 25.4687 4.14761C25.5375 3.94475 25.6004 3.73987 25.6575 3.53297C25.7196 3.30526 25.7131 3.07941 25.6382 2.85541C25.5729 2.65801 25.5067 2.4612 25.4397 2.26497Z" fill="white"/>
<path fill-rule="evenodd" clip-rule="evenodd" d="M22.8739 3.56201C23.3835 3.56963 23.6852 3.82451 23.7792 4.32668C23.7941 4.46506 23.7973 4.6038 23.7889 4.74289C23.7855 4.78898 23.7775 4.83416 23.7647 4.8784C23.63 4.69635 23.4928 4.51568 23.3532 4.33636C23.2224 4.18299 23.0626 4.07168 22.8739 4.00242C22.6583 3.92949 22.442 3.85851 22.2252 3.78947C22.4257 3.66621 22.6419 3.59039 22.8739 3.56201Z" fill="white"/>
<path fill-rule="evenodd" clip-rule="evenodd" d="M42.0352 3.6588C42.2784 3.65162 42.5108 3.69841 42.7323 3.79915C42.9854 3.91752 43.221 4.06271 43.4391 4.23472C43.883 4.60754 44.288 5.01891 44.6542 5.46884C45.699 6.79532 46.5576 8.24077 47.2297 9.8052C47.4153 10.2393 47.5702 10.6846 47.6945 11.141C47.7469 11.3367 47.7808 11.5335 47.7961 11.7314C46.3098 11.1864 44.78 10.8638 43.2067 10.7635C41.1387 10.6621 39.1441 11.0348 37.2231 11.8814C36.1913 12.3466 35.2134 12.8983 34.2893 13.5366C33.9761 13.7577 33.6663 13.9836 33.3598 14.2142C32.6824 14.7655 32.008 15.3204 31.3362 15.879C31.0341 16.1131 30.7227 16.3341 30.4019 16.542C30.3877 16.5075 30.3829 16.4736 30.3874 16.4404C30.4283 15.8504 30.5074 15.2648 30.6246 14.6836C31.1129 12.2435 31.739 9.83985 32.5029 7.47247C32.6496 7.01145 32.8336 6.5662 33.0548 6.13672C33.2416 5.78566 33.4643 5.45979 33.7229 5.1591C34.3705 4.44596 35.1112 4.33464 35.945 4.82517C36.1278 4.93696 36.3053 5.05634 36.4775 5.1833C36.6449 5.31516 36.8095 5.45067 36.9713 5.58984C37.3751 5.95801 37.7817 6.3226 38.1913 6.68361C38.4247 6.87607 38.6668 7.05676 38.9175 7.22565C39.1519 7.37829 39.4036 7.49445 39.6727 7.57411C39.8826 7.63252 40.0956 7.64866 40.3117 7.6225C40.3248 7.61503 40.3328 7.60374 40.3359 7.58863C40.376 7.45108 40.4114 7.31234 40.4424 7.17241C40.5353 6.71475 40.6256 6.2566 40.7135 5.79794C40.8011 5.31889 40.9366 4.85428 41.1202 4.40411C41.21 4.19813 41.3375 4.01906 41.5026 3.86691C41.6625 3.75076 41.84 3.68138 42.0352 3.6588Z" fill="white"/>
<path fill-rule="evenodd" clip-rule="evenodd" d="M29.0609 3.68784C29.0706 3.68755 29.077 3.69239 29.0802 3.70236C29.186 3.97246 29.207 4.24832 29.1432 4.52995C29.0282 4.87731 28.7876 5.0725 28.4218 5.11555C28.181 5.13717 27.9487 5.10329 27.7247 5.01391C27.9195 4.91813 28.1132 4.81973 28.3057 4.71869C28.4972 4.61432 28.6472 4.46752 28.7559 4.27828C28.8628 4.08399 28.9644 3.88718 29.0609 3.68784Z" fill="white"/>
<path fill-rule="evenodd" clip-rule="evenodd" d="M25.4397 4.75257C26.4971 4.73464 27.2636 5.1928 27.7392 6.12704C28.0081 6.72774 28.05 7.344 27.8651 7.9758C27.6232 8.66297 27.1568 9.12274 26.466 9.35511C26.0617 9.47807 25.6486 9.52324 25.2267 9.49062C25.106 9.48502 24.9866 9.4705 24.8684 9.44707C25.2379 9.23406 25.5929 9.00015 25.9335 8.74531C26.2243 8.52234 26.4712 8.25939 26.6742 7.95644C26.9515 7.48803 26.9741 7.00728 26.742 6.51422C26.5462 6.12167 26.2509 5.82967 25.856 5.63823C25.4737 5.47303 25.0896 5.48271 24.7038 5.66727C24.3019 5.91072 24.0711 6.26725 24.0116 6.73684C23.9911 6.88161 24.0104 7.02034 24.0697 7.15305C24.1318 7.23674 24.2108 7.25772 24.3069 7.21597C24.3796 7.17874 24.4442 7.13035 24.5005 7.07078C24.5725 6.98965 24.6387 6.90415 24.699 6.81428C24.7813 6.66908 24.8684 6.52712 24.9604 6.38838C25.1007 6.24286 25.2669 6.20576 25.4591 6.27707C25.9627 6.40472 26.1773 6.72576 26.1029 7.24017C25.9697 7.76375 25.6615 8.14608 25.1783 8.38717C24.7812 8.5569 24.4068 8.51818 24.0551 8.27102C23.6051 7.89718 23.3663 7.41644 23.3386 6.8288C23.3699 6.26465 23.5862 5.78552 23.9874 5.39141C24.3911 4.99658 24.8752 4.78363 25.4397 4.75257Z" fill="white"/>
<path fill-rule="evenodd" clip-rule="evenodd" d="M21.8088 6.59165C22.0927 6.60208 22.3267 6.715 22.5108 6.93043C22.6346 7.08272 22.7298 7.25211 22.7964 7.4386C22.7867 7.44505 22.7771 7.44505 22.7674 7.4386C22.522 7.31674 22.2687 7.21511 22.0073 7.1337C21.8583 7.09948 21.7115 7.09786 21.5668 7.12886C21.3558 7.16684 21.1461 7.2104 20.9374 7.25953C20.931 7.2563 20.9245 7.25307 20.9181 7.24985C21.0233 7.05587 21.1653 6.89294 21.3441 6.76104C21.485 6.66305 21.6399 6.60658 21.8088 6.59165Z" fill="white"/>
<path fill-rule="evenodd" clip-rule="evenodd" d="M28.6542 6.83364C28.8571 6.93342 29.0637 7.02537 29.2739 7.1095C29.4751 7.18254 29.6816 7.2019 29.8936 7.16757C30.1097 7.12724 30.3227 7.08691 30.5326 7.04658C30.3952 7.29526 30.2015 7.48724 29.9516 7.6225C29.5607 7.77202 29.2266 7.68975 28.9495 7.37568C28.8133 7.21637 28.7149 7.03569 28.6542 6.83364Z" fill="white"/>
<path fill-rule="evenodd" clip-rule="evenodd" d="M16.4352 15.7483C16.4352 15.7225 16.4352 15.6967 16.4352 15.6709C16.5101 15.0628 16.5827 14.453 16.653 13.8415C16.6066 13.1718 16.6744 12.5136 16.8563 11.8669C17.1269 10.9554 17.4529 10.0649 17.8343 9.1954C17.9892 8.91148 18.1441 8.62754 18.299 8.34362C18.3346 8.29999 18.3717 8.25804 18.4103 8.21779C18.563 8.31745 18.713 8.4207 18.8606 8.52753C18.9189 8.71569 18.9802 8.90283 19.0445 9.08893C19.1664 9.40612 19.2826 9.72554 19.3931 10.0472C19.4366 10.1839 19.4462 10.3226 19.4221 10.4634C19.4033 10.5269 19.3743 10.585 19.335 10.6376C19.2549 10.7275 19.1661 10.8065 19.0687 10.8748C18.9298 10.9622 18.791 11.0493 18.6524 11.1361C18.7765 11.3599 18.8943 11.5874 19.0058 11.8185C19.0856 11.9881 19.0985 12.1623 19.0445 12.3412C18.9574 12.5348 18.8703 12.7284 18.7831 12.922C18.7238 13.0676 18.6721 13.2161 18.6282 13.3672C18.5863 13.6185 18.575 13.8685 18.5943 14.1174C18.596 14.2596 18.5815 14.3999 18.5507 14.5384C18.4816 14.743 18.3444 14.8802 18.1392 14.9498C18.0977 14.9642 18.0558 14.9771 18.0134 14.9885C17.6969 15.0215 17.3806 15.0554 17.0645 15.0901C17.0122 15.2518 16.959 15.4131 16.9048 15.5741C16.893 15.5891 16.8785 15.6004 16.8612 15.608C16.7114 15.6326 16.5694 15.6794 16.4352 15.7483Z" fill="white"/>
<path fill-rule="evenodd" clip-rule="evenodd" d="M23.0772 9.00181C23.3514 9.005 23.6064 9.07599 23.8421 9.21476C23.649 9.27857 23.4554 9.34148 23.2612 9.40351C23.0416 9.47484 22.8593 9.59906 22.7141 9.77616C22.5786 9.95688 22.443 10.1375 22.3075 10.3182C22.2405 10.0465 22.2534 9.77868 22.3462 9.51482C22.4874 9.19782 22.7311 9.02682 23.0772 9.00181Z" fill="white"/>
<path fill-rule="evenodd" clip-rule="evenodd" d="M27.686 9.31155C27.8082 9.48442 27.9259 9.66187 28.0394 9.84392C28.1751 10.0409 28.3543 10.1844 28.5768 10.2747C28.7704 10.3521 28.9641 10.4295 29.1577 10.507C28.8717 10.6665 28.5683 10.7149 28.2476 10.6521C27.9427 10.5538 27.7507 10.349 27.6715 10.0375C27.624 9.79455 27.6289 9.5526 27.686 9.31155Z" fill="white"/>
<path fill-rule="evenodd" clip-rule="evenodd" d="M25.6914 9.98911C25.6967 9.98969 25.6999 9.99288 25.7011 9.99879C25.6211 10.1823 25.542 10.3662 25.4639 10.5505C25.3755 10.7593 25.3497 10.9754 25.3864 11.199C25.4318 11.4255 25.477 11.6513 25.522 11.8766C25.267 11.7379 25.0702 11.541 24.9314 11.2861C24.7952 10.9449 24.85 10.6383 25.096 10.3666C25.2683 10.1992 25.4668 10.0733 25.6914 9.98911Z" fill="white"/>
<path fill-rule="evenodd" clip-rule="evenodd" d="M48.4352 15.4096C48.4352 15.5419 48.4352 15.6741 48.4352 15.8064C48.3206 16.6472 47.8978 17.2812 47.1668 17.7084C46.5265 18.0394 45.8714 18.0749 45.2013 17.8149C44.99 17.7286 44.7835 17.6318 44.5816 17.5245C44.2192 17.3208 43.8513 17.1272 43.4778 16.9437C42.538 16.504 41.5504 16.2684 40.515 16.2371C38.9237 16.2156 37.368 16.4414 35.8482 16.9147C35.1721 17.1336 34.4959 17.361 33.8197 17.5971C33.5817 17.6655 33.3413 17.7349 33.0984 17.8052C32.9147 17.8542 32.7291 17.8945 32.5417 17.9262C32.5303 17.923 32.5191 17.9197 32.5078 17.9165C32.4781 17.8191 32.4524 17.7208 32.4303 17.6213C32.4557 17.5863 32.4847 17.554 32.5175 17.5245C33.3498 16.7922 34.2471 16.1501 35.2091 15.5983C37.1998 14.4411 39.317 13.5925 41.5607 13.0526C42.5413 12.8224 43.5207 12.7046 44.4993 12.6993C45.0514 12.7064 45.5952 12.779 46.1308 12.9171C46.7484 13.0764 47.2794 13.3813 47.7235 13.8318C48.1261 14.2822 48.3633 14.8082 48.4352 15.4096Z" fill="white"/>
<path fill-rule="evenodd" clip-rule="evenodd" d="M24.7135 13.4253C26.5846 13.3513 27.9482 14.1386 28.8043 15.7871C29.239 16.577 29.4779 17.4224 29.5208 18.323C29.536 19.8974 28.9696 21.2186 27.8215 22.2868C26.7141 23.264 25.4167 23.7593 23.9293 23.7725C22.8325 23.7581 21.7997 23.4952 20.8309 22.9837C20.012 22.5509 19.2843 21.9975 18.6476 21.3237C18.1577 20.8147 17.7188 20.2663 17.3308 19.6782C17.0891 19.3078 16.9019 18.911 16.7692 18.4876C16.7181 18.3103 16.6923 18.1296 16.6917 17.9456C16.8039 18.2989 16.9717 18.6215 17.1952 18.9135C17.4851 19.3002 17.816 19.6503 18.1877 19.9637C19.0891 20.7321 20.1186 21.2645 21.2763 21.5608C23.0819 21.9703 24.7246 21.6251 26.2046 20.5251C26.8716 19.9452 27.2702 19.2144 27.4004 18.3327C27.5212 17.4933 27.3437 16.7254 26.8678 16.029C26.5067 15.533 26.0339 15.1894 25.4494 14.9982C24.9096 14.8384 24.39 14.8868 23.8905 15.1434C23.4226 15.428 23.1402 15.8425 23.0433 16.3872C22.9685 16.8846 23.0104 17.3751 23.1692 17.8584C23.2148 17.8097 23.2568 17.758 23.2951 17.7036C23.4403 17.4745 23.5855 17.2454 23.7308 17.0163C24.1715 16.3873 24.7379 16.2469 25.43 16.5953C25.7521 16.7952 25.9441 17.0839 26.0061 17.4616C26.0732 18.2544 25.8069 18.9111 25.2073 19.4313C24.7742 19.752 24.2869 19.8972 23.7453 19.8669C22.7872 19.7889 21.9981 19.3872 21.378 18.6618C20.9629 18.1044 20.7418 17.4768 20.7147 16.7792C20.7385 16.0751 20.9822 15.4605 21.4457 14.9353C21.9953 14.3401 22.6586 13.919 23.4355 13.6721C23.8531 13.5392 24.2791 13.4569 24.7135 13.4253Z" fill="white"/>
<path fill-rule="evenodd" clip-rule="evenodd" d="M39.3144 18.2456C40.387 18.2337 41.4166 18.4741 42.4031 18.9667C43.4934 19.534 44.318 20.3648 44.8769 21.4592C45.4846 22.7534 45.5363 24.0698 45.0318 25.4083C44.8186 25.9318 44.541 26.4158 44.1992 26.8603C44.0185 27.0602 43.82 27.2393 43.6037 27.3975C42.7614 27.9942 41.8351 28.4104 40.8249 28.6461C40.4839 28.7194 40.1482 28.7387 39.8179 28.7042C39.571 28.6775 39.3515 28.5872 39.1595 28.4332C39.0436 28.322 38.9565 28.1914 38.8981 28.0411C39.8084 27.8006 40.4103 27.2327 40.7038 26.3376C40.9883 25.2926 40.8592 24.3021 40.3166 23.366C39.6501 22.3299 38.7093 21.9057 37.4942 22.0932C36.9495 22.2058 36.4396 22.4058 35.9644 22.6933C35.3985 23.0363 34.8805 23.4412 34.4103 23.908C33.7086 24.7356 32.9195 25.4632 32.043 26.0907C29.5475 27.8345 26.8171 28.3539 23.8518 27.6491C22.2358 27.232 20.8157 26.4674 19.5916 25.3551C19.1568 24.9464 18.7872 24.4866 18.483 23.9758C18.2964 23.6575 18.1608 23.3188 18.0763 22.9595C18.0667 22.9275 18.0634 22.8953 18.0666 22.8627C18.9611 23.6721 19.96 24.3286 21.0633 24.8324C22.0028 25.2551 22.9871 25.4971 24.0164 25.5584C25.2004 25.6081 26.3333 25.392 27.4149 24.9099C27.9201 24.68 28.4042 24.4154 28.8672 24.1162C29.6912 23.5668 30.4851 22.9763 31.2491 22.3448C32.0747 21.6484 32.917 20.9741 33.7762 20.3218C34.318 19.9218 34.886 19.5605 35.4802 19.2377C36.3903 18.773 37.352 18.4666 38.3656 18.3182C38.6822 18.2778 38.9984 18.2536 39.3144 18.2456Z" fill="white"/>
<path fill-rule="evenodd" clip-rule="evenodd" d="M33.3695 32C32.9854 32 32.6014 32 32.2173 32C32.2141 31.9871 32.2108 31.9871 32.2076 32C32.2044 32 32.2011 32 32.1979 32C31.7358 31.9995 31.2774 31.9496 30.8231 31.85C29.1841 31.507 27.5704 31.0715 25.9819 30.5433C25.6119 30.4189 25.2505 30.2737 24.8975 30.1077C24.8313 30.0697 24.7668 30.0295 24.7038 29.9867C25.7539 30.1103 26.8061 30.1151 27.8603 30.0012C28.8003 29.8919 29.7298 29.7241 30.6488 29.4979C31.0405 29.4023 31.431 29.3024 31.8203 29.1978C32.6627 28.9623 33.5051 28.7267 34.3474 28.4912C35.0837 28.2847 35.8292 28.1201 36.584 27.9976C36.8251 27.9631 37.0672 27.9389 37.3102 27.925C37.4196 28.3965 37.4632 28.874 37.4409 29.3575C37.3677 30.3903 36.8594 31.1147 35.9159 31.5306C35.4742 31.7136 35.0159 31.8361 34.5411 31.8984C34.1506 31.95 33.7601 31.9838 33.3695 32Z" fill="white"/>
<path d="M69.44 7.20484V24.0048H66.152V13.1088L61.424 20.9088H61.04L56.312 13.1328V24.0048H53V7.20484H56.408L61.232 15.1488L66.032 7.20484H69.44Z" fill="white"/>
<path d="M75.8823 20.8368H82.9623V24.0048H72.5703V7.20484H82.8423V10.3728H75.8823V13.9488H82.2423V17.0688H75.8823V20.8368Z" fill="white"/>
<path d="M96.4089 7.20484V10.3728H91.8729V24.0048H88.5609V10.3728H84.0489V7.20484H96.4089Z" fill="white"/>
<path d="M107.839 24.0048L106.831 20.9808H100.135L99.1271 24.0048H95.5511L101.431 7.20484H105.535L111.439 24.0048H107.839ZM101.191 17.8848H105.799L103.495 11.0208L101.191 17.8848Z" fill="white"/>
<path d="M125.382 6.86884C127.91 6.86884 129.998 7.70884 131.646 9.38884C133.294 11.0528 134.118 13.1248 134.118 15.6048C134.118 18.0688 133.294 20.1408 131.646 21.8208C129.998 23.5008 127.91 24.3408 125.382 24.3408C123.862 24.3408 122.462 23.9888 121.182 23.2848C119.902 22.5648 118.902 21.5968 118.182 20.3808L121.038 18.7248C121.438 19.4608 122.022 20.0448 122.79 20.4768C123.574 20.8928 124.438 21.1008 125.382 21.1008C126.742 21.1008 127.886 20.7488 128.814 20.0448C129.742 19.3248 130.35 18.3568 130.638 17.1408H123.15V14.0448H130.638C130.35 12.8288 129.742 11.8688 128.814 11.1648C127.886 10.4448 126.742 10.0848 125.382 10.0848C124.438 10.0848 123.582 10.3008 122.814 10.7328C122.046 11.1488 121.454 11.7328 121.038 12.4848L118.182 10.8288C118.902 9.61284 119.902 8.65284 121.182 7.94884C122.478 7.22884 123.878 6.86884 125.382 6.86884Z" fill="white"/>
<path d="M149.566 24.0048H145.749L139.749 16.1328V24.0048H136.438V7.20484H139.749V14.6208L145.51 7.20484H149.326L143.109 15.3648L149.566 24.0048Z" fill="white"/>
<path d="M157.741 24.3408C155.213 24.3408 153.125 23.5008 151.477 21.8208C149.829 20.1408 149.005 18.0688 149.005 15.6048C149.005 13.1248 149.829 11.0528 151.477 9.38884C153.125 7.70884 155.213 6.86884 157.741 6.86884C159.261 6.86884 160.661 7.22884 161.941 7.94884C163.237 8.65284 164.245 9.61284 164.965 10.8288L162.109 12.4848C161.693 11.7328 161.101 11.1488 160.333 10.7328C159.565 10.3008 158.701 10.0848 157.741 10.0848C156.109 10.0848 154.789 10.5968 153.781 11.6208C152.789 12.6448 152.293 13.9728 152.293 15.6048C152.293 17.2208 152.789 18.5408 153.781 19.5648C154.789 20.5888 156.109 21.1008 157.741 21.1008C158.701 21.1008 159.565 20.8928 160.333 20.4768C161.117 20.0448 161.709 19.4608 162.109 18.7248L164.965 20.3808C164.245 21.5968 163.245 22.5648 161.965 23.2848C160.685 23.9888 159.277 24.3408 157.741 24.3408Z" fill="white"/>
<path d="M179.552 7.20484V24.0048H176.24V10.3728H170.312V24.0048H167V7.20484H179.552Z" fill="white"/>
<path d="M188.944 7.20484C190.56 7.20484 191.92 7.74884 193.024 8.83684C194.128 9.92484 194.68 11.2608 194.68 12.8448C194.68 14.4288 194.128 15.7648 193.024 16.8528C191.92 17.9408 190.56 18.4848 188.944 18.4848H185.992V24.0048H182.68V7.20484H188.944ZM188.944 15.3888C189.648 15.3888 190.232 15.1488 190.696 14.6688C191.16 14.1728 191.392 13.5648 191.392 12.8448C191.392 12.1088 191.16 11.5008 190.696 11.0208C190.232 10.5408 189.648 10.3008 188.944 10.3008H185.992V15.3888H188.944Z" fill="white"/>
<path d="M200.148 20.8368H207.228V24.0048H196.836V7.20484H207.108V10.3728H200.148V13.9488H206.508V17.0688H200.148V20.8368Z" fill="white"/>
<path d="M217.413 24.3408C214.885 24.3408 212.797 23.5008 211.149 21.8208C209.501 20.1408 208.677 18.0688 208.677 15.6048C208.677 13.1248 209.501 11.0528 211.149 9.38884C212.797 7.70884 214.885 6.86884 217.413 6.86884C218.933 6.86884 220.333 7.22884 221.613 7.94884C222.909 8.65284 223.917 9.61284 224.637 10.8288L221.781 12.4848C221.365 11.7328 220.773 11.1488 220.005 10.7328C219.237 10.3008 218.373 10.0848 217.413 10.0848C215.781 10.0848 214.461 10.5968 213.453 11.6208C212.461 12.6448 211.965 13.9728 211.965 15.6048C211.965 17.2208 212.461 18.5408 213.453 19.5648C214.461 20.5888 215.781 21.1008 217.413 21.1008C218.373 21.1008 219.237 20.8928 220.005 20.4768C220.789 20.0448 221.381 19.4608 221.781 18.7248L224.637 20.3808C223.917 21.5968 222.917 22.5648 221.637 23.2848C220.357 23.9888 218.949 24.3408 217.413 24.3408Z" fill="white"/>
<path d="M234.476 24.3408C231.948 24.3408 229.86 23.5008 228.212 21.8208C226.564 20.1408 225.74 18.0688 225.74 15.6048C225.74 13.1248 226.564 11.0528 228.212 9.38884C229.86 7.70884 231.948 6.86884 234.476 6.86884C235.996 6.86884 237.396 7.22884 238.676 7.94884C239.972 8.65284 240.98 9.61284 241.7 10.8288L238.844 12.4848C238.428 11.7328 237.836 11.1488 237.068 10.7328C236.3 10.3008 235.436 10.0848 234.476 10.0848C232.844 10.0848 231.524 10.5968 230.516 11.6208C229.524 12.6448 229.028 13.9728 229.028 15.6048C229.028 17.2208 229.524 18.5408 230.516 19.5648C231.524 20.5888 232.844 21.1008 234.476 21.1008C235.436 21.1008 236.3 20.8928 237.068 20.4768C237.852 20.0448 238.444 19.4608 238.844 18.7248L241.7 20.3808C240.98 21.5968 239.98 22.5648 238.7 23.2848C237.42 23.9888 236.012 24.3408 234.476 24.3408Z" fill="white"/>
<path d="M13.128 24.0048H9.312L3.312 16.1328V24.0048H0V7.20484H3.312V14.6208L9.072 7.20484H12.888L6.672 15.3648L13.128 24.0048Z" fill="white"/>
</svg>
