<svg width="80" height="80" viewBox="0 0 80 80" fill="none" xmlns="http://www.w3.org/2000/svg">
<path d="M74.26 60.1175L71.7102 46.6259C71.658 46.3503 71.5399 46.0915 71.366 45.8715C71.1921 45.6516 70.9675 45.4769 70.7115 45.3625C70.4556 45.2478 70.1758 45.1968 69.896 45.2137C69.6161 45.2306 69.3445 45.315 69.1043 45.4597L57.3457 52.5481C57.0113 52.7494 56.7544 53.0576 56.6165 53.4227C56.4785 53.7879 56.4676 54.1889 56.5854 54.5611C56.7028 54.9333 56.9421 55.2551 57.2647 55.4746C57.5874 55.6941 57.9745 55.7986 58.3638 55.7711L62.9566 55.4507C58.5713 61.3445 51.9707 63.7634 44.3998 64.3834V25.7865H48.1808C48.7905 26.2404 49.54 26.518 50.3584 26.518C52.383 26.518 54.0252 24.8772 54.0252 22.8524C54.0252 20.8264 52.383 19.1856 50.3584 19.1856C49.5386 19.1856 48.789 19.4645 48.1793 19.9184H44.3996V14.6175C46.5514 13.1869 47.9755 10.7459 47.9755 7.97548C47.9756 3.57855 44.3974 0 40.0003 0C35.6032 0 32.0247 3.57855 32.0247 7.97548C32.0247 10.7459 33.4489 13.1869 35.6005 14.6175V19.9186H31.8211C31.2113 19.4647 30.4619 19.1857 29.6421 19.1857C27.6175 19.1857 25.9753 20.8266 25.9753 22.8525C25.9753 24.8772 27.6175 26.5182 29.6421 26.5182C30.4605 26.5182 31.21 26.2406 31.8197 25.7867H35.6005V64.3835C28.0298 63.7636 21.4292 61.3446 17.044 55.4509L21.6368 55.7712C22.0261 55.7987 22.4133 55.6943 22.7359 55.4748C23.0585 55.2552 23.2978 54.9334 23.4151 54.5613C23.5329 54.1891 23.522 53.7881 23.3841 53.423C23.2462 53.0578 22.9894 52.7496 22.655 52.5482L10.8961 45.4599C10.656 45.3152 10.3844 45.2308 10.1045 45.2139C9.82466 45.1969 9.54486 45.248 9.28902 45.3627C9.03298 45.4771 8.80841 45.6517 8.63449 45.8717C8.46057 46.0917 8.34247 46.3505 8.29026 46.6261L5.74029 60.1176C5.66768 60.5012 5.72633 60.8979 5.90679 61.244C6.08725 61.5901 6.379 61.8654 6.73501 62.0254C7.0909 62.1861 7.49053 62.2221 7.86942 62.1277C8.24831 62.0334 8.58435 61.8141 8.82332 61.5053L11.5665 57.967C16.9297 66.6519 25.3629 73.923 35.0895 75.8104L38.7703 79.4912C39.4501 80.1696 40.5497 80.1696 41.2283 79.4912L44.9091 75.8104C54.6357 73.9244 63.0701 66.6519 68.4335 57.967L71.1767 61.5053C71.4156 61.8141 71.7516 62.0334 72.1305 62.1277C72.5093 62.2221 72.9089 62.186 73.2648 62.0254C73.6209 61.8655 73.9128 61.5902 74.0934 61.2441C74.2739 60.8979 74.3326 60.5011 74.26 60.1175ZM40.0003 5.86779C41.1625 5.86779 42.1078 6.81334 42.1078 7.97548C42.1078 9.13762 41.1625 10.0832 40.0003 10.0832C38.8382 10.0832 37.8925 9.13762 37.8925 7.97548C37.8926 6.81334 38.8382 5.86779 40.0003 5.86779Z" fill="white"/>
</svg>
