<svg width="80" height="80" viewBox="0 0 80 80" fill="none" xmlns="http://www.w3.org/2000/svg">
<g clip-path="url(#clip0_148_781)">
<path d="M61.7222 0H18.2774C8.21196 0 0.0506592 8.15896 0.0506592 18.2268V61.7729C0.0506592 71.8409 8.21196 79.9998 18.2774 79.9998H61.7222C71.7875 79.9998 79.9491 71.8409 79.9491 61.7729V18.2268C79.9491 8.15896 71.7875 0 61.7222 0ZM61.7222 74.6734H45.6282C51.7245 73.6837 57.3007 71.1296 61.9278 67.4248C60.6638 66.9981 59.4909 66.3219 58.5442 65.3754L51.9509 58.7822C50.9496 57.7781 50.2628 56.5741 49.8519 55.297C47.0091 57.133 43.6358 58.2097 40.0102 58.2097C36.382 58.2097 33.0088 57.1329 30.1658 55.297C29.7549 56.5764 29.0656 57.7833 28.0593 58.7899L21.4791 65.37C20.5323 66.3219 19.3595 66.9981 18.0954 67.4273C22.7222 71.1296 28.2985 73.6837 34.3949 74.6734H18.2774C11.164 74.6734 5.37727 68.8865 5.37727 61.773V45.9846C6.35003 51.6856 8.70643 57.0266 12.2852 61.6016C12.6217 62.0325 13.0459 62.3871 13.5297 62.6417C14.0136 62.8964 14.546 63.0453 15.0917 63.0787C15.1697 63.0841 15.2502 63.0868 15.3281 63.0868C15.8346 63.0872 16.3362 62.9875 16.8041 62.7933C17.2719 62.5991 17.6967 62.3143 18.054 61.9553L24.6392 55.3698C25.2821 54.7292 25.6782 53.8822 25.7577 52.9781C25.8372 52.074 25.5949 51.1709 25.0736 50.428C22.9435 47.3929 21.7966 43.7855 21.7966 40.0013C21.7966 36.217 22.9437 32.6069 25.0736 29.5745C26.1477 28.0426 25.9631 25.9567 24.6392 24.6329L18.054 18.0449C17.3309 17.3193 16.3452 16.9186 15.3254 16.9186C15.2475 16.9186 15.1695 16.9213 15.089 16.9263C14.5441 16.9594 14.0124 17.1077 13.529 17.3614C13.0457 17.6152 12.6217 17.9686 12.2851 18.3984C8.70355 22.9721 6.34985 28.3142 5.37709 34.0152V18.2268C5.37709 11.1134 11.1638 5.32661 18.2773 5.32661H34.3921C28.2958 6.31626 22.7195 8.87019 18.0925 12.5752C19.3539 13.0017 20.5271 13.6779 21.4736 14.6246L28.0593 21.2126C29.0656 22.2192 29.7522 23.4232 30.1658 24.703C33.0086 22.8666 36.382 21.7899 40.0102 21.7899C43.6358 21.7899 47.009 22.8666 49.8492 24.7003C50.2628 23.4232 50.9494 22.219 51.9534 21.2151L58.5388 14.6298C59.4855 13.6779 60.6612 12.9992 61.9224 12.5725C57.2955 8.8702 51.7219 6.31608 45.6255 5.32661H61.7222C68.8354 5.32661 74.6225 11.1135 74.6225 18.2268V34.0412C73.6706 28.4651 71.3818 23.076 67.7377 18.4036C67.3767 17.9395 66.9144 17.564 66.3862 17.3057C65.8579 17.0474 65.2777 16.9131 64.6897 16.9132C64.1833 16.9133 63.6819 17.0133 63.2142 17.2074C62.7465 17.4016 62.3217 17.6861 61.9641 18.0447L55.3735 24.6354C54.0523 25.9565 53.8702 28.0372 54.9416 29.5691C59.3034 35.8086 59.3034 44.1887 54.9416 50.4255C53.8702 51.9624 54.0498 54.0379 55.3735 55.3619L61.9641 61.9551C62.6872 62.6807 63.6752 63.0812 64.6949 63.0812C65.2815 63.0809 65.8604 62.9471 66.3876 62.6898C66.9147 62.4324 67.3764 62.0585 67.7375 61.5962C71.3814 56.9236 73.6704 51.5348 74.6223 45.9586V61.773C74.6227 68.8863 68.8354 74.6734 61.7222 74.6734Z" fill="white"/>
</g>
<defs>
<clipPath id="clip0_148_781">
<rect width="80" height="80" fill="white"/>
</clipPath>
</defs>
</svg>
