<svg width="80" height="80" viewBox="0 0 80 80" fill="none" xmlns="http://www.w3.org/2000/svg">
<g clip-path="url(#clip0_148_773)">
<path d="M45.5104 14.188C47.1413 12.6921 48.1812 10.5628 48.1812 8.18078C48.1812 3.66913 44.5131 0 40.0032 0C35.4928 0 31.8224 3.66913 31.8224 8.18078C31.8224 10.5628 32.8652 12.6907 34.4959 14.188C18.8107 16.8146 6.84668 30.4157 6.84668 46.8468C6.84668 65.1573 21.6899 80 40.0004 80C58.3108 80 73.154 65.1573 73.154 46.8468C73.154 30.4169 61.1926 16.816 45.5104 14.188ZM40.0032 4.10637C42.2488 4.10637 44.0747 5.93364 44.0747 8.18061C44.0747 9.67517 43.2568 10.9704 42.0536 11.6789V10.0855C42.0536 8.95194 41.1338 8.03232 40.0004 8.03232C38.8667 8.03232 37.9473 8.95194 37.9473 10.0855V11.6761C36.7467 10.9676 35.9286 9.67379 35.9286 8.18078C35.9286 5.93381 37.7575 4.10637 40.0032 4.10637ZM18.3267 61.7285L19.8586 60.8438C20.8397 60.277 21.1766 59.0205 20.6098 58.0394C20.0456 57.0583 18.7917 56.7188 17.8054 57.2882L16.2869 58.1651C15.557 56.6418 14.9768 55.0512 14.5546 53.4156L16.2841 53.1108C17.4017 52.9129 18.1475 51.8477 17.9497 50.7314C17.7546 49.6166 16.7038 48.8709 15.5729 49.0658L13.8192 49.3759C13.7388 48.5417 13.6907 47.6997 13.6907 46.8468C13.6907 45.9912 13.7388 45.1464 13.8192 44.3122L15.5729 44.621C15.6932 44.6423 15.8136 44.6517 15.9311 44.6517C16.9096 44.6517 17.7757 43.9514 17.9496 42.9555C18.1475 41.8393 17.4015 40.7739 16.284 40.5762L14.5572 40.2713C14.9795 38.6363 15.5596 37.0462 16.2895 35.5235L17.8053 36.4002C18.1163 36.5807 18.4695 36.6757 18.8291 36.6756C19.5405 36.6756 20.2299 36.308 20.6096 35.6504C21.1764 34.668 20.8423 33.4127 19.8584 32.8447L18.3292 31.961C19.288 30.5703 20.3775 29.2744 21.5827 28.091L22.7135 29.4398C22.9064 29.6699 23.1473 29.8548 23.4193 29.9817C23.6914 30.1085 23.988 30.1741 24.2881 30.1738C24.7537 30.1738 25.2239 30.0158 25.6063 29.6939C26.4752 28.9654 26.5902 27.67 25.8629 26.8011L24.7375 25.459C26.1099 24.4766 27.5737 23.6288 29.1087 22.9273L29.7102 24.5767C29.8545 24.9728 30.117 25.3149 30.4623 25.5567C30.8076 25.7984 31.2189 25.9282 31.6405 25.9282C31.8731 25.9282 32.111 25.8881 32.3434 25.8039C33.4077 25.4161 33.9585 24.2385 33.5707 23.1732L32.969 21.5197C34.5961 21.067 36.2633 20.7728 37.9471 20.6414V22.402C37.9471 23.5356 38.8665 24.4552 40.0003 24.4552C41.1337 24.4552 42.0535 23.5356 42.0535 22.402V20.6414C43.7374 20.772 45.4046 21.0662 47.0315 21.5197L46.4324 23.1626C46.0449 24.228 46.5931 25.4071 47.6596 25.7947C47.8921 25.8787 48.13 25.919 48.3627 25.919C49.1997 25.919 49.988 25.4017 50.2931 24.5689L50.8917 22.9274C52.4264 23.6289 53.8902 24.4763 55.2628 25.4578L54.1427 26.7904C53.4128 27.6581 53.525 28.9535 54.3939 29.6833C54.6507 29.8998 54.9499 30.0148 55.2575 30.0855L35.6423 40.9116C34.5504 41.5155 33.6577 42.4239 33.073 43.5263L22.6576 63.151C22.5796 63.2979 22.5508 63.466 22.5753 63.6305C22.5999 63.795 22.6765 63.9473 22.7939 64.0651C22.8109 64.0819 22.8252 64.096 22.838 64.1083L21.5803 65.601C20.3748 64.4168 19.2853 63.1201 18.3267 61.7285ZM44.3419 46.8468C44.3419 49.245 42.3987 51.1898 40.0004 51.1898C37.6022 51.1898 35.6588 49.245 35.6588 46.8468C35.6588 44.4487 37.6022 42.5039 40.0004 42.5039C42.3987 42.5039 44.3419 44.4487 44.3419 46.8468ZM63.7218 53.1107L65.4463 53.4154C65.0241 55.051 64.4439 56.6416 63.714 58.165L62.2008 57.2905C61.217 56.7187 59.9631 57.0608 59.3965 58.042C58.8295 59.0231 59.1666 60.2794 60.1477 60.8464L61.6742 61.7285C60.7157 63.1203 59.6262 64.4171 58.4206 65.6012L57.2872 64.2523C56.5574 63.382 55.2606 63.2738 54.3944 63.9982C53.5255 64.7281 53.4133 66.0235 54.1432 66.891L55.2687 68.2317C53.8949 69.2154 52.4293 70.0641 50.8924 70.7661L50.2938 69.1166C49.906 68.0525 48.7214 67.5003 47.6629 67.8881C46.5964 68.2756 46.0456 69.4535 46.4331 70.5202L47.0346 72.1724C45.4069 72.6261 43.7389 72.9206 42.0542 73.0519V71.2913C42.0542 70.1576 41.1343 69.2382 40.001 69.2382C38.8672 69.2382 37.9478 70.1576 37.9478 71.2913V73.0519C36.263 72.9206 34.595 72.6261 32.9671 72.1724L33.5714 70.5162C33.959 69.4507 33.4083 68.2718 32.3441 67.8842C32.0907 67.7914 31.8215 67.7495 31.552 67.7609C31.2824 67.7723 31.0177 67.8368 30.7731 67.9506C30.5285 68.0645 30.3087 68.2255 30.1265 68.4245C29.9442 68.6234 29.803 68.8564 29.7109 69.11L29.1068 70.7662C27.5713 70.0631 26.1067 69.2145 24.7332 68.2319L25.8612 66.8899C26.591 66.021 26.4787 64.726 25.6099 63.997C25.3772 63.8022 25.1152 63.6777 24.8426 63.6015L43.3324 53.7846C44.4343 53.1988 45.3426 52.3058 45.9469 51.2139L57.3412 30.5748C57.4234 30.4273 57.4551 30.2569 57.4314 30.0897C57.4077 29.9225 57.33 29.7676 57.2101 29.6487L57.1514 29.5911L58.4159 28.0885C59.6217 29.2726 60.7121 30.5689 61.6721 31.9598L60.1483 32.8381C59.1673 33.4049 58.8302 34.66 59.3972 35.6425C59.5772 35.9554 59.8367 36.2152 60.1493 36.3957C60.462 36.5762 60.8167 36.671 61.1777 36.6704C61.525 36.6704 61.878 36.5822 62.2015 36.3964L63.7147 35.5251C64.4435 37.0475 65.0228 38.6371 65.4442 40.2715L63.7253 40.5752C62.6079 40.7718 61.8621 41.8369 62.0597 42.9531C62.2337 43.9505 63.0998 44.651 64.0783 44.651C64.196 44.651 64.316 44.6415 64.4365 44.6201L66.1824 44.3127C66.2626 45.1469 66.3107 45.9917 66.3107 46.8473C66.3107 47.7 66.2626 48.5422 66.1824 49.375L64.4393 49.0663C63.3217 48.8793 62.2604 49.6143 62.0597 50.7319C61.8614 51.8476 62.6072 52.9129 63.7218 53.1107Z" fill="white"/>
<path d="M38.3965 46.8466C38.3965 47.7315 39.1157 48.4519 40.0004 48.4519C40.8852 48.4519 41.6042 47.7315 41.6042 46.8466C41.6042 45.9618 40.885 45.2412 40.0004 45.2412C39.1157 45.2414 38.3965 45.9618 38.3965 46.8466Z" fill="white"/>
</g>
<defs>
<clipPath id="clip0_148_773">
<rect width="80" height="80" fill="white"/>
</clipPath>
</defs>
</svg>
