<svg width="81" height="80" viewBox="0 0 81 80" fill="none" xmlns="http://www.w3.org/2000/svg">
<g clip-path="url(#clip0_148_764)">
<path d="M77.9864 37.3894C77.0426 37.3908 76.2543 37.9095 75.7881 38.6501C75.3009 37.7802 74.3993 37.1674 73.3263 37.1688H71.4425C71.1132 33.5742 70.1485 30.1646 68.6845 27.0271L70.3342 26.0815C71.2637 25.5487 71.7335 24.5727 71.7204 23.5787C72.4944 23.9876 73.4384 24.0463 74.2559 23.5775C75.5169 22.8551 75.9501 21.2549 75.2247 20.0063C74.4903 18.7588 72.8829 18.329 71.6216 19.0502C70.8042 19.5191 70.3828 20.3604 70.3539 21.2316C69.4929 20.7221 68.4054 20.6384 67.4747 21.1702L65.8268 22.1146C63.7718 19.2383 61.2414 16.7275 58.3428 14.6884L59.2945 13.0531C59.8304 12.1309 59.746 11.0532 59.2342 10.199C60.1123 10.169 60.9598 9.75103 61.4312 8.93856C62.1606 7.68838 61.7274 6.08695 60.4716 5.36594C59.2051 4.65008 57.5976 5.07476 56.8698 6.32477C56.3972 7.13724 56.4579 8.07376 56.8698 8.84316C55.8668 8.82754 54.8819 9.29375 54.3449 10.2186L53.3956 11.8514C50.2311 10.3976 46.7964 9.43874 43.1712 9.11101V7.23985C43.1712 6.17395 42.5551 5.28049 41.6794 4.79713C42.4247 4.3347 42.9485 3.55227 42.9485 2.61574C42.9485 1.17235 41.769 0.00195312 40.3145 0.00195312C38.8597 0.00195312 37.6802 1.17235 37.6802 2.61574C37.6802 3.55227 38.2043 4.3347 38.9493 4.79713C38.0738 5.28049 37.4578 6.17395 37.4578 7.23985V9.11049C33.8325 9.43702 30.3953 10.3959 27.2319 11.8497L26.2786 10.2116C25.7417 9.28808 24.7584 8.82171 23.7551 8.83612C24.1684 8.06673 24.2263 7.12883 23.7565 6.31774C23.0287 5.06772 21.4186 4.6379 20.1573 5.36165C18.8987 6.08386 18.4671 7.68151 19.1951 8.9317C19.6665 9.74296 20.5144 10.1609 21.3911 10.1908C20.8761 11.045 20.7933 12.1241 21.3292 13.0464L22.2835 14.6857C19.3844 16.7252 16.8536 19.2364 14.7982 22.113L13.1486 21.1674C12.2166 20.6345 11.1306 20.718 10.27 21.2275C10.2408 20.3561 9.8183 19.515 9.00192 19.0461C7.74096 18.3251 6.12826 18.7522 5.40302 20.0035C4.67605 21.2536 5.1068 22.8512 6.36794 23.5722C7.18535 24.0412 8.12934 23.9837 8.90335 23.575C8.88883 24.5691 9.36039 25.5461 10.2897 26.0789L11.939 27.0245C10.4751 30.1637 9.51015 33.573 9.1809 37.169H7.29689C6.22268 37.169 5.32226 37.7815 4.83375 38.6503C4.36928 37.9099 3.58057 37.3896 2.63675 37.3882C1.1809 37.3894 0 38.5612 0 40.0048C0.00242094 41.4482 1.1809 42.6172 2.63675 42.6158C3.58195 42.6158 4.37049 42.0975 4.83496 41.3565C5.32209 42.2265 6.22268 42.8382 7.2955 42.8382H9.18055C9.51118 46.4355 10.4773 49.8448 11.9427 52.9835L10.2906 53.9293C9.35987 54.4624 8.88831 55.4394 8.90422 56.4349C8.12883 56.0249 7.18362 55.966 6.36759 56.4322C5.10646 57.1558 4.67328 58.7558 5.40267 60.006C6.13051 61.2535 7.74061 61.6835 9.00158 60.9597C9.8074 60.4973 10.2248 59.6757 10.2669 58.8202C10.7078 59.0788 11.2093 59.2212 11.7213 59.2212C12.2219 59.2209 12.7136 59.0898 13.1469 58.8411L14.8018 57.894C16.8566 60.7692 19.3865 63.279 22.2844 65.3175L21.3287 66.9594C20.7916 67.8817 20.8758 68.9632 21.3906 69.8174C20.5125 69.8474 19.666 70.2656 19.1946 71.0729C18.4666 72.3269 18.8958 73.9267 20.1567 74.6481C21.4181 75.3677 23.0282 74.9394 23.756 73.6865C24.2208 72.8885 24.1693 71.9713 23.7757 71.2112C23.7849 71.2112 23.793 71.2139 23.8008 71.2139C24.788 71.2139 25.7479 70.7057 26.2781 69.7966L27.2339 68.1545C30.3973 69.6072 33.8332 70.5646 37.4573 70.8913V72.7606C37.4573 73.8264 38.0734 74.7186 38.9488 75.2033C38.2038 75.6646 37.6797 76.448 37.6797 77.3847C37.6797 78.8283 38.8592 79.9987 40.314 79.9987C41.7687 79.9987 42.948 78.8283 42.948 77.3847C42.948 76.4482 42.4242 75.6646 41.6789 75.2033C42.5546 74.7186 43.1707 73.8265 43.1707 72.7606V70.8913C46.7947 70.5633 50.2305 69.606 53.3942 68.1523L54.3472 69.7903C54.8777 70.7005 55.8373 71.2086 56.8247 71.2086C56.8324 71.2086 56.8406 71.2062 56.8484 71.2062C56.4574 71.9675 56.4058 72.8859 56.8694 73.6827C57.5975 74.9341 59.2076 75.3641 60.4659 74.6416C61.7271 73.918 62.1601 72.3205 61.4308 71.0691C60.9596 70.2594 60.113 69.8412 59.2366 69.8112C59.75 68.9567 59.8327 67.8778 59.2971 66.9557L58.3428 65.3151C61.2395 63.2762 63.7684 60.7664 65.8226 57.8916L67.4759 58.8387C67.9093 59.0875 68.401 59.2186 68.9017 59.2188C69.4139 59.2188 69.914 59.0764 70.3551 58.8178C70.3985 59.6747 70.8172 60.4976 71.6214 60.9573C72.8826 61.6811 74.4951 61.2526 75.2207 60.0026C75.9473 58.7512 75.5167 57.1536 74.2558 56.4312C73.4382 55.9634 72.4942 56.0211 71.7188 56.4298C71.7333 55.4356 71.2621 54.46 70.3328 53.927L68.6821 52.9814C70.1457 49.8424 71.112 46.4343 71.4425 42.8384H73.3263C74.3993 42.8384 75.2997 42.2268 75.7881 41.3595C76.2529 42.099 77.0424 42.6187 77.9864 42.6174C79.4399 42.6174 80.6234 41.4483 80.6234 40.005C80.618 38.5612 79.4399 37.3894 77.9864 37.3894ZM66.0294 37.1702H65.2015C64.8499 35.9998 63.8006 35.1284 62.5064 35.1284H62.5054C61.897 35.1284 61.3637 35.3585 60.9005 35.6811C60.7462 34.9666 60.5542 34.2607 60.3253 33.5661C60.4044 33.5728 60.4792 33.5963 60.5583 33.5963C61.0579 33.596 61.5486 33.4653 61.9813 33.2175C63.1015 32.5773 63.5741 31.3036 63.2924 30.1164L64.0088 29.7061C65.0612 32.0776 65.7426 34.5946 66.0294 37.1702ZM40.3116 55.5345C31.6799 55.5345 24.6568 48.5658 24.6568 40.0007C24.6568 31.4355 31.6801 24.4682 40.3116 24.4682C48.9436 24.4682 55.9668 31.4355 55.9668 40.0007C55.9668 48.5658 48.9435 55.5345 40.3116 55.5345ZM61.131 24.8051L60.4388 25.2023C59.5461 24.3649 58.198 24.1324 57.0792 24.7697C56.5407 25.0769 56.1892 25.5523 55.9509 26.0746C55.4553 25.5266 54.9306 25.0052 54.379 24.5127C54.895 24.2762 55.3517 23.9037 55.6586 23.3787C56.3074 22.2669 56.0747 20.928 55.2308 20.0411L55.6336 19.3476C57.7306 20.8839 59.5836 22.7235 61.131 24.8051ZM50.6957 16.4908L50.2838 17.2001C49.0884 16.9167 47.8048 17.3817 47.1558 18.492C46.849 19.0171 46.7831 19.5945 46.8334 20.1561C46.1265 19.9262 45.4051 19.7276 44.6665 19.5735C44.9916 19.1123 45.2246 18.5833 45.2246 17.9786C45.2246 16.6946 44.349 15.6548 43.1711 15.3048V14.4831C45.821 14.773 48.347 15.4654 50.6957 16.4908ZM37.4575 14.4817V15.3046C36.2792 15.6547 35.4038 16.6945 35.4038 17.9785C35.4038 18.5833 35.6368 19.1123 35.9608 19.5722C35.2209 19.7263 34.4982 19.9262 33.7885 20.1561C33.8397 19.5945 33.7754 19.0183 33.4698 18.4932C32.8248 17.3815 31.54 16.9139 30.3422 17.1974L29.9299 16.4893C32.28 15.4642 34.8076 14.7717 37.4575 14.4817ZM24.9938 19.345L25.3926 20.032C24.5501 20.919 24.3158 22.2553 24.9623 23.3656C25.2703 23.8946 25.7323 24.2682 26.2525 24.506C25.6983 25.0008 25.171 25.5244 24.6727 26.0746C24.4356 25.5549 24.0844 25.0808 23.5485 24.7725C22.4283 24.1285 21.0803 24.3596 20.1851 25.1997L19.4939 24.8039C21.0412 22.7211 22.8952 20.8809 24.9938 19.345ZM16.6146 29.7049L17.3253 30.1111C17.0424 31.2986 17.5138 32.5696 18.6326 33.2108C19.0659 33.4608 19.5583 33.5925 20.0596 33.5924C20.1414 33.5924 20.2188 33.5689 20.2992 33.561C20.0727 34.2545 19.8764 34.9611 19.7225 35.6835C19.2591 35.3609 18.7274 35.1312 18.1192 35.1312H18.1178C16.8238 35.1312 15.7743 35.9998 15.4231 37.1715L14.5938 37.1702C14.8809 34.5943 15.5623 32.0769 16.6146 29.7049ZM14.595 42.8391L15.4205 42.8404C15.7721 44.0084 16.8212 44.8772 18.1138 44.8772H18.1152C18.7248 44.8772 19.2591 44.6457 19.7239 44.3231C19.8806 45.0572 20.0819 45.7744 20.3136 46.4798C19.7478 46.4273 19.1645 46.4916 18.634 46.7957C17.5138 47.4373 17.0426 48.7123 17.3281 49.9007L16.6198 50.3059C15.5653 47.9338 14.8825 45.4158 14.595 42.8391ZM19.4976 55.2042L20.1478 54.832C20.6849 55.3401 21.3932 55.6196 22.1186 55.6196C22.6031 55.6196 23.094 55.4969 23.5443 55.2395C24.084 54.9313 24.4368 54.4531 24.6737 53.9293C25.1801 54.4885 25.7162 55.0205 26.2797 55.5231C25.7517 55.758 25.2701 56.1069 24.9594 56.6424C24.3128 57.7539 24.5475 59.0903 25.3924 59.9786L24.9964 60.6577C22.8989 59.1229 21.0454 57.2846 19.4976 55.2042ZM29.9356 63.5146L30.3225 62.8496C30.5438 62.9031 30.7689 62.9357 30.9927 62.9357C31.9799 62.9357 32.9409 62.4278 33.47 61.5174C33.7768 60.9896 33.8413 60.4096 33.7887 59.8452C34.4984 60.0764 35.2195 60.2749 35.9596 60.4304C35.6356 60.8902 35.404 61.418 35.404 62.0215C35.404 63.3053 36.2794 64.3451 37.4577 64.6953V65.5196C34.8621 65.2351 32.3255 64.559 29.9356 63.5146ZM43.1711 65.5184V64.6955C44.3492 64.3453 45.2246 63.3055 45.2246 62.0217C45.2246 61.418 44.9916 60.8888 44.6676 60.4292C45.4077 60.2737 46.1288 60.0752 46.8357 59.8454C46.7857 60.407 46.8502 60.9832 47.1558 61.5083C47.6849 62.4173 48.6459 62.9268 49.6333 62.9268C49.857 62.9268 50.0811 62.8942 50.3021 62.8406L50.6931 63.5122C48.3458 64.5361 45.8196 65.2285 43.1711 65.5184ZM55.6308 60.6551L55.232 59.9705C56.0759 59.0836 56.3102 57.7474 55.664 56.6357C55.3531 56.1016 54.8741 55.7541 54.3489 55.5175C54.9111 55.0164 55.4459 54.4858 55.9509 53.9279C56.188 54.449 56.538 54.9231 57.0751 55.2316C57.5085 55.4814 58.0008 55.613 58.502 55.6129C59.2363 55.6115 59.9419 55.3299 60.4727 54.8265L61.127 55.2014C59.5801 57.2818 57.7274 59.1202 55.6308 60.6551ZM64.006 50.3019L63.2965 49.8956C63.581 48.7082 63.111 47.4359 61.9906 46.7933C61.4602 46.4889 60.8782 46.4235 60.311 46.4745C60.5425 45.7717 60.7438 45.0572 60.8994 44.3245C61.3627 44.6459 61.8945 44.8758 62.5014 44.8758H62.5028C63.7956 44.8758 64.8445 44.0084 65.1975 42.8391H66.0282C65.736 45.4662 65.038 47.9728 64.006 50.3019Z" fill="white"/>
<path d="M40.3119 29.6958C34.5855 29.6958 29.9268 34.3185 29.9268 40.0006C29.9268 45.6841 34.5855 50.3069 40.3119 50.3069C46.0383 50.3069 50.6974 45.6841 50.6974 40.0006C50.6974 34.3185 46.0383 29.6958 40.3119 29.6958ZM40.3119 47.6316C36.0718 47.6316 32.6228 44.2081 32.6228 40.0006C32.6228 35.7933 36.0718 32.371 40.3119 32.371C44.5524 32.371 48.0013 35.7933 48.0013 40.0006C48.0013 44.2083 44.5522 47.6316 40.3119 47.6316Z" fill="white"/>
<path d="M40.3116 34.7861C37.4101 34.7861 35.0564 37.1216 35.0564 40.0007C35.0564 42.8811 37.4101 45.2152 40.3116 45.2152C43.2131 45.2152 45.5668 42.8809 45.5668 40.0007C45.5668 37.1216 43.2129 34.7861 40.3116 34.7861Z" fill="white"/>
</g>
<defs>
<clipPath id="clip0_148_764">
<rect width="80.6234" height="80" fill="white"/>
</clipPath>
</defs>
</svg>
